<svg width="375" height="146" viewBox="0 0 375 146" fill="none" xmlns="http://www.w3.org/2000/svg">
<path d="M-21.2792 26.93V54C-21.2792 54.77 -21.8292 55.43 -22.5892 55.58C-22.6892 55.6 -22.7892 55.61 -22.8792 55.61C-23.5292 55.61 -24.1292 55.21 -24.3692 54.58L-30.1092 39.73C-30.1792 39.55 -30.2192 39.35 -30.2192 39.15V27.21C-30.2192 16.33 -21.3692 7.49 -10.4992 7.49C-9.80922 7.49 -9.10922 7.53 -8.42922 7.6C-8.01922 7.28 -7.50923 7.09 -6.95923 7.09C-5.61923 7.09 -4.53922 8.18 -4.53922 9.51C-4.53922 9.56 -4.54922 9.6 -4.54922 9.65C-4.54922 9.69 -4.55923 9.73 -4.55923 9.77C-4.68923 10.98 -5.70923 11.94 -6.95923 11.94C-7.83923 11.94 -8.59923 11.47 -9.01923 10.77C-9.50923 10.73 -9.99922 10.7 -10.4992 10.7C-19.6092 10.7 -27.0192 18.11 -27.0192 27.22V38.85L-24.4892 45.4V26.93C-24.4892 19.22 -18.2192 12.94 -10.4992 12.94C-2.77922 12.94 3.49078 19.21 3.49078 26.93V38.08C3.49078 38.08 3.48077 41.77 3.47077 45.62L6.02077 39.24V27.21C6.02077 23.39 4.68077 19.7 2.30077 16.77C2.28077 16.77 2.26078 16.78 2.24078 16.78C0.900776 16.78 -0.179222 15.69 -0.179222 14.36C-0.179222 13.02 0.910774 11.94 2.24078 11.94C3.58078 11.94 4.66077 13.03 4.66077 14.36C4.66077 14.44 4.64078 14.51 4.64078 14.58C7.58078 18.11 9.23077 22.58 9.23077 27.22V39.55C9.23077 39.75 9.19077 39.96 9.12077 40.15L3.33077 54.6C3.04077 55.31 2.29077 55.72 1.54077 55.58C0.790771 55.43 0.240776 54.77 0.240776 54.01C0.240776 52.39 0.290771 38.09 0.290771 38.09V26.93C0.290771 20.99 -4.54923 16.15 -10.4892 16.15C-16.4492 16.15 -21.2792 20.98 -21.2792 26.93ZM-32.6392 24.83C-32.2092 21.24 -30.9292 17.85 -28.8992 14.89C-27.6892 14.75 -26.7492 13.74 -26.7492 12.49C-26.7492 11.15 -27.8392 10.07 -29.1692 10.07C-30.5092 10.07 -31.5892 11.16 -31.5892 12.49C-31.5892 12.68 -31.5592 12.87 -31.5192 13.05C-32.8592 15 -33.9292 17.11 -34.6792 19.34L-36.1492 15.76C-33.6292 10.4 -29.4092 5.88 -24.2092 3C-23.5692 2.65 -23.2492 1.9 -23.4292 1.2C-23.6092 0.490001 -24.2492 0 -24.9792 0H-34.9892C-35.3892 0 -35.7792 0.15 -36.0792 0.43C-37.6492 1.88 -39.0892 3.45 -40.3792 5.14L-41.8892 1.06C-42.1992 0.229998 -43.1192 -0.199999 -43.9492 0.110001C-44.7792 0.420001 -45.2092 1.34 -44.8992 2.17L-42.3392 9.11C-42.1292 9.68 -41.6192 10.08 -41.0092 10.15C-40.4092 10.22 -39.8192 9.94 -39.4892 9.43C-38.0292 7.17 -36.3092 5.08 -34.3592 3.22H-30.2292C-34.1592 6.38 -37.3192 10.47 -39.3592 15.1C-39.5392 15.5 -39.5392 15.95 -39.3792 16.36L-35.7192 25.27C-35.4692 25.88 -34.8792 26.26 -34.2392 26.26C-34.1692 26.26 -34.0892 26.26 -34.0192 26.25C-33.2892 26.13 -32.7292 25.55 -32.6392 24.83ZM-10.4992 18.88C-14.7692 18.88 -18.2392 22.35 -18.2392 26.62V32.15C-18.2392 33.04 -17.5192 33.75 -16.6392 33.75C-15.7592 33.75 -15.0392 33.03 -15.0392 32.15V26.62C-15.0392 24.12 -13.0092 22.09 -10.5092 22.09C-8.00922 22.09 -5.97923 24.12 -5.97923 26.62V29.52C-6.47923 29.96 -6.79922 30.6 -6.79922 31.32C-6.79922 32.55 -5.87923 33.55 -4.69923 33.71C-4.59923 33.73 -4.48923 33.74 -4.37923 33.74H-4.36922C-4.25922 33.74 -4.15923 33.73 -4.05923 33.71C-2.87923 33.55 -1.95923 32.54 -1.95923 31.32C-1.95923 30.6 -2.27923 29.96 -2.77923 29.52V26.62C-2.75923 22.35 -6.23922 18.88 -10.4992 18.88ZM-4.36922 36.66C-5.25922 36.66 -5.96922 37.38 -5.96922 38.26V67.1C-6.46922 67.54 -6.78922 68.18 -6.78922 68.9C-6.78922 70.13 -5.86922 71.13 -4.68922 71.29C-4.58923 71.31 -4.47923 71.32 -4.36922 71.32C-4.33923 71.32 -4.31923 71.31 -4.29922 71.31C-4.21922 71.31 -4.12923 71.3 -4.04922 71.28C-2.86922 71.12 -1.94923 70.11 -1.94923 68.89C-1.94923 68.17 -2.26923 67.53 -2.76923 67.09V38.26C-2.75923 37.38 -3.47923 36.66 -4.36922 36.66ZM-12.1092 26.58V34.31C-12.1092 35.2 -11.3892 35.91 -10.5092 35.91C-9.61922 35.91 -8.90923 35.19 -8.90923 34.31V26.58C-8.90923 25.69 -9.62922 24.98 -10.5092 24.98C-11.3892 24.97 -12.1092 25.69 -12.1092 26.58ZM-10.4992 87.69C-10.4092 87.69 -10.3092 87.68 -10.2092 87.66C-9.44923 87.52 -8.88923 86.86 -8.88923 86.08V40.78C-8.88923 39.89 -9.60923 39.18 -10.4892 39.18C-11.3792 39.18 -12.0892 39.9 -12.0892 40.78V77.23L-15.0192 69.42V57.52C-15.0192 56.63 -15.7392 55.92 -16.6192 55.92C-17.4992 55.92 -18.2192 56.64 -18.2192 57.52V69.73C-18.2192 69.92 -18.1892 70.11 -18.1192 70.29L-11.9892 86.65C-11.7692 87.29 -11.1592 87.69 -10.4992 87.69ZM-18.2392 48.21C-18.7392 48.65 -19.0592 49.29 -19.0592 50.01C-19.0592 51.24 -18.1392 52.24 -16.9592 52.4C-16.8592 52.42 -16.7492 52.43 -16.6392 52.43C-16.5292 52.43 -16.4192 52.42 -16.3192 52.4C-15.1392 52.24 -14.2192 51.23 -14.2192 50.01C-14.2192 49.29 -14.5392 48.65 -15.0392 48.21V38.27C-15.0392 37.38 -15.7592 36.67 -16.6392 36.67C-17.5192 36.67 -18.2392 37.39 -18.2392 38.27V48.21ZM7.83077 2.16C7.75077 1.48 7.40077 0.829998 6.79077 0.419998C5.68077 -0.330002 4.17077 -0.030002 3.43077 1.08C2.68077 2.19 2.98077 3.7 4.08077 4.44C4.66077 4.83 5.35078 4.93 5.99078 4.78C9.91077 7.6 13.1008 11.4 15.1508 15.78L13.7208 19.47C10.3508 9.21 0.740776 2 -10.4992 2C-15.2392 2 -19.8692 3.31 -23.8792 5.79C-24.6292 6.26 -24.8692 7.24 -24.3992 8C-23.9292 8.75 -22.9492 8.99 -22.1892 8.52C-18.6792 6.36 -14.6392 5.21 -10.4992 5.21C0.990776 5.21 10.5208 13.81 11.6808 25.22C11.7508 25.96 12.3308 26.55 13.0608 26.65C13.1308 26.66 13.2008 26.66 13.2808 26.66C13.9308 26.66 14.5308 26.26 14.7708 25.64L18.3908 16.31C18.5408 15.91 18.5308 15.47 18.3608 15.08C16.0808 9.92 12.4108 5.44 7.83077 2.16ZM22.3908 0H13.9208C13.2608 0 12.6608 0.409999 12.4208 1.03C12.1808 1.65 12.3508 2.35 12.8408 2.8C14.4308 4.23 15.7508 5.67 16.9808 7.28C16.8008 7.94 16.9008 8.68 17.3208 9.28C18.0808 10.38 19.6008 10.65 20.6908 9.89C20.8008 9.82 20.9008 9.73 20.9908 9.64C21.8308 8.83 21.9908 7.51 21.3008 6.52C20.9008 5.95 20.3008 5.61 19.6608 5.51C19.0608 4.71 18.4408 3.95 17.7808 3.21H22.3808C23.2708 3.21 23.9808 2.49 23.9808 1.61C23.9908 0.720001 23.2808 0 22.3908 0ZM-28.5192 108.97H-32.4192C-33.3092 108.97 -34.0192 109.69 -34.0192 110.57V118.57C-34.0192 119.46 -33.2992 120.17 -32.4192 120.17C-31.5292 120.17 -30.8192 119.45 -30.8192 118.57V112.17H-28.5292C-25.0492 112.17 -22.2192 109.34 -22.2192 105.86C-22.2192 102.38 -25.0492 99.55 -28.5292 99.55H-32.4292C-33.3192 99.55 -34.0292 100.27 -34.0292 101.15C-34.0292 102.04 -33.3092 102.75 -32.4292 102.75H-28.5292C-26.8192 102.75 -25.4292 104.14 -25.4292 105.85C-25.4192 107.58 -26.8092 108.97 -28.5192 108.97ZM-19.4692 118.58C-19.4692 119.47 -18.7492 120.18 -17.8692 120.18C-16.9892 120.18 -16.2692 119.46 -16.2692 118.58V101.25C-16.2692 100.36 -16.9892 99.65 -17.8692 99.65C-18.7492 99.65 -19.4692 100.37 -19.4692 101.25V118.58ZM-32.4192 125.03C-33.3092 125.03 -34.0192 125.75 -34.0192 126.63V135.29C-34.0192 136.18 -33.2992 136.89 -32.4192 136.89C-31.5292 136.89 -30.8192 136.17 -30.8192 135.29V128.42C-27.6992 129.15 -25.3592 131.95 -25.3592 135.29C-25.3592 139.18 -28.5292 142.35 -32.4192 142.35C-33.3092 142.35 -34.0192 143.07 -34.0192 143.95C-34.0192 144.84 -33.2992 145.55 -32.4192 145.55C-26.7592 145.55 -22.1492 140.94 -22.1492 135.28C-22.1492 129.63 -26.7592 125.03 -32.4192 125.03ZM1.88078 126.63C1.88078 125.74 1.16078 125.03 0.280777 125.03H-4.04922H-8.37923C-9.26923 125.03 -9.97923 125.75 -9.97923 126.63C-9.97923 127.52 -9.25923 128.23 -8.37923 128.23H-5.64922V143.95C-5.64922 144.84 -4.92923 145.55 -4.04922 145.55C-3.15923 145.55 -2.44923 144.83 -2.44923 143.95V128.23H0.280777C1.16078 128.24 1.88078 127.52 1.88078 126.63ZM11.4108 116.97H5.39078L12.7808 101.9C13.0408 101.4 13.0208 100.81 12.7308 100.33C12.4408 99.85 11.9208 99.56 11.3608 99.56H2.76077C1.87077 99.56 1.16077 100.28 1.16077 101.16C1.16077 102.05 1.88077 102.76 2.76077 102.76H8.72077L1.33077 117.83C1.07077 118.33 1.09077 118.92 1.38078 119.4C1.67078 119.88 2.19078 120.17 2.75078 120.17H11.4108C12.3008 120.17 13.0108 119.45 13.0108 118.57C13.0208 117.69 12.3008 116.97 11.4108 116.97ZM12.9708 143.56C13.0908 144.04 12.9908 144.55 12.6808 144.94C12.3708 145.33 11.9108 145.56 11.4108 145.56H2.75078C2.25078 145.56 1.79078 145.33 1.48077 144.94C1.18077 144.55 1.07077 144.04 1.19077 143.56L5.52077 126.24C5.70078 125.53 6.34078 125.04 7.07078 125.04C7.80078 125.04 8.44077 125.53 8.62077 126.24L12.9708 143.56ZM9.34077 142.35L7.08077 133.05L4.82078 142.35H9.34077ZM-13.2792 119.41C-12.9892 119.89 -12.4692 120.18 -11.9092 120.18H-3.24922C-2.35922 120.18 -1.64922 119.46 -1.64922 118.58C-1.64922 117.69 -2.36922 116.98 -3.24922 116.98H-9.26923L-1.87923 101.91C-1.61923 101.41 -1.63922 100.82 -1.92922 100.34C-2.21922 99.86 -2.73922 99.57 -3.29922 99.57H-11.8992C-12.7892 99.57 -13.4992 100.29 -13.4992 101.17C-13.4992 102.06 -12.7792 102.77 -11.8992 102.77H-5.93922L-13.3292 117.84C-13.5892 118.33 -13.5692 118.93 -13.2792 119.41ZM-9.30923 143.56C-9.18923 144.04 -9.28923 144.55 -9.59923 144.94C-9.90923 145.33 -10.3692 145.56 -10.8692 145.56H-19.5292C-20.0292 145.56 -20.4892 145.33 -20.7992 144.94C-21.0992 144.55 -21.2092 144.04 -21.0892 143.56L-16.7592 126.24C-16.5792 125.53 -15.9392 125.04 -15.2092 125.04C-14.4792 125.04 -13.8392 125.53 -13.6592 126.24L-9.30923 143.56ZM-12.9292 142.35L-15.1892 133.05L-17.4492 142.35H-12.9292Z" fill="#BB3721"/>
<path d="M77.7017 26.93V54C77.7017 54.77 77.1517 55.43 76.3917 55.58C76.2917 55.6 76.1917 55.61 76.1017 55.61C75.4517 55.61 74.8517 55.21 74.6117 54.58L68.8717 39.73C68.8017 39.55 68.7617 39.35 68.7617 39.15V27.21C68.7617 16.33 77.6117 7.49 88.4817 7.49C89.1717 7.49 89.8717 7.53 90.5517 7.6C90.9617 7.28 91.4717 7.09 92.0217 7.09C93.3617 7.09 94.4417 8.18 94.4417 9.51C94.4417 9.56 94.4317 9.6 94.4317 9.65C94.4317 9.69 94.4217 9.73 94.4217 9.77C94.2917 10.98 93.2717 11.94 92.0217 11.94C91.1417 11.94 90.3817 11.47 89.9617 10.77C89.4717 10.73 88.9817 10.7 88.4817 10.7C79.3717 10.7 71.9617 18.11 71.9617 27.22V38.85L74.4917 45.4V26.93C74.4917 19.22 80.7617 12.94 88.4817 12.94C96.2017 12.94 102.472 19.21 102.472 26.93V38.08C102.472 38.08 102.462 41.77 102.452 45.62L105.002 39.24V27.21C105.002 23.39 103.662 19.7 101.282 16.77C101.262 16.77 101.242 16.78 101.222 16.78C99.8817 16.78 98.8017 15.69 98.8017 14.36C98.8017 13.02 99.8917 11.94 101.222 11.94C102.562 11.94 103.642 13.03 103.642 14.36C103.642 14.44 103.622 14.51 103.622 14.58C106.562 18.11 108.212 22.58 108.212 27.22V39.55C108.212 39.75 108.172 39.96 108.102 40.15L102.312 54.6C102.022 55.31 101.272 55.72 100.522 55.58C99.7717 55.43 99.2217 54.77 99.2217 54.01C99.2217 52.39 99.2717 38.09 99.2717 38.09V26.93C99.2717 20.99 94.4317 16.15 88.4917 16.15C82.5317 16.15 77.7017 20.98 77.7017 26.93ZM66.3417 24.83C66.7717 21.24 68.0517 17.85 70.0817 14.89C71.2917 14.75 72.2317 13.74 72.2317 12.49C72.2317 11.15 71.1417 10.07 69.8117 10.07C68.4717 10.07 67.3917 11.16 67.3917 12.49C67.3917 12.68 67.4217 12.87 67.4617 13.05C66.1217 15 65.0517 17.11 64.3017 19.34L62.8317 15.76C65.3517 10.4 69.5717 5.88 74.7717 3C75.4117 2.65 75.7317 1.9 75.5517 1.2C75.3717 0.490001 74.7317 0 74.0017 0H63.9917C63.5917 0 63.2017 0.15 62.9017 0.43C61.3317 1.88 59.8917 3.45 58.6017 5.14L57.0917 1.06C56.7817 0.229998 55.8617 -0.199999 55.0317 0.110001C54.2017 0.420001 53.7717 1.34 54.0817 2.17L56.6417 9.11C56.8517 9.68 57.3617 10.08 57.9717 10.15C58.5717 10.22 59.1617 9.94 59.4917 9.43C60.9517 7.17 62.6717 5.08 64.6217 3.22H68.7517C64.8217 6.38 61.6617 10.47 59.6217 15.1C59.4417 15.5 59.4417 15.95 59.6017 16.36L63.2617 25.27C63.5117 25.88 64.1017 26.26 64.7417 26.26C64.8117 26.26 64.8917 26.26 64.9617 26.25C65.6917 26.13 66.2517 25.55 66.3417 24.83ZM88.4817 18.88C84.2117 18.88 80.7417 22.35 80.7417 26.62V32.15C80.7417 33.04 81.4617 33.75 82.3417 33.75C83.2217 33.75 83.9417 33.03 83.9417 32.15V26.62C83.9417 24.12 85.9717 22.09 88.4717 22.09C90.9717 22.09 93.0017 24.12 93.0017 26.62V29.52C92.5017 29.96 92.1817 30.6 92.1817 31.32C92.1817 32.55 93.1017 33.55 94.2817 33.71C94.3817 33.73 94.4917 33.74 94.6017 33.74H94.6117C94.7217 33.74 94.8217 33.73 94.9217 33.71C96.1017 33.55 97.0217 32.54 97.0217 31.32C97.0217 30.6 96.7017 29.96 96.2017 29.52V26.62C96.2217 22.35 92.7417 18.88 88.4817 18.88ZM94.6117 36.66C93.7217 36.66 93.0117 37.38 93.0117 38.26V67.1C92.5117 67.54 92.1917 68.18 92.1917 68.9C92.1917 70.13 93.1117 71.13 94.2917 71.29C94.3917 71.31 94.5017 71.32 94.6117 71.32C94.6417 71.32 94.6617 71.31 94.6817 71.31C94.7617 71.31 94.8517 71.3 94.9317 71.28C96.1117 71.12 97.0317 70.11 97.0317 68.89C97.0317 68.17 96.7117 67.53 96.2117 67.09V38.26C96.2217 37.38 95.5017 36.66 94.6117 36.66ZM86.8717 26.58V34.31C86.8717 35.2 87.5917 35.91 88.4717 35.91C89.3617 35.91 90.0717 35.19 90.0717 34.31V26.58C90.0717 25.69 89.3517 24.98 88.4717 24.98C87.5917 24.97 86.8717 25.69 86.8717 26.58ZM88.4817 87.69C88.5717 87.69 88.6717 87.68 88.7717 87.66C89.5317 87.52 90.0917 86.86 90.0917 86.08V40.78C90.0917 39.89 89.3717 39.18 88.4917 39.18C87.6017 39.18 86.8917 39.9 86.8917 40.78V77.23L83.9617 69.42V57.52C83.9617 56.63 83.2417 55.92 82.3617 55.92C81.4817 55.92 80.7617 56.64 80.7617 57.52V69.73C80.7617 69.92 80.7917 70.11 80.8617 70.29L86.9917 86.65C87.2117 87.29 87.8217 87.69 88.4817 87.69ZM80.7417 48.21C80.2417 48.65 79.9217 49.29 79.9217 50.01C79.9217 51.24 80.8417 52.24 82.0217 52.4C82.1217 52.42 82.2317 52.43 82.3417 52.43C82.4517 52.43 82.5617 52.42 82.6617 52.4C83.8417 52.24 84.7617 51.23 84.7617 50.01C84.7617 49.29 84.4417 48.65 83.9417 48.21V38.27C83.9417 37.38 83.2217 36.67 82.3417 36.67C81.4617 36.67 80.7417 37.39 80.7417 38.27V48.21ZM106.812 2.16C106.732 1.48 106.382 0.829998 105.772 0.419998C104.662 -0.330002 103.152 -0.030002 102.412 1.08C101.662 2.19 101.962 3.7 103.062 4.44C103.642 4.83 104.332 4.93 104.972 4.78C108.892 7.6 112.082 11.4 114.132 15.78L112.702 19.47C109.332 9.21 99.7217 2 88.4817 2C83.7417 2 79.1117 3.31 75.1017 5.79C74.3517 6.26 74.1117 7.24 74.5817 8C75.0517 8.75 76.0317 8.99 76.7917 8.52C80.3017 6.36 84.3417 5.21 88.4817 5.21C99.9717 5.21 109.502 13.81 110.662 25.22C110.732 25.96 111.312 26.55 112.042 26.65C112.112 26.66 112.182 26.66 112.262 26.66C112.912 26.66 113.512 26.26 113.752 25.64L117.372 16.31C117.522 15.91 117.512 15.47 117.342 15.08C115.062 9.92 111.392 5.44 106.812 2.16ZM121.372 0H112.902C112.242 0 111.642 0.409999 111.402 1.03C111.162 1.65 111.332 2.35 111.822 2.8C113.412 4.23 114.732 5.67 115.962 7.28C115.782 7.94 115.882 8.68 116.302 9.28C117.062 10.38 118.582 10.65 119.672 9.89C119.782 9.82 119.882 9.73 119.972 9.64C120.812 8.83 120.972 7.51 120.282 6.52C119.882 5.95 119.282 5.61 118.642 5.51C118.042 4.71 117.422 3.95 116.762 3.21H121.362C122.252 3.21 122.962 2.49 122.962 1.61C122.972 0.720001 122.262 0 121.372 0ZM70.4617 108.97H66.5617C65.6717 108.97 64.9617 109.69 64.9617 110.57V118.57C64.9617 119.46 65.6817 120.17 66.5617 120.17C67.4517 120.17 68.1617 119.45 68.1617 118.57V112.17H70.4517C73.9317 112.17 76.7617 109.34 76.7617 105.86C76.7617 102.38 73.9317 99.55 70.4517 99.55H66.5517C65.6617 99.55 64.9517 100.27 64.9517 101.15C64.9517 102.04 65.6717 102.75 66.5517 102.75H70.4517C72.1617 102.75 73.5517 104.14 73.5517 105.85C73.5617 107.58 72.1717 108.97 70.4617 108.97ZM79.5117 118.58C79.5117 119.47 80.2317 120.18 81.1117 120.18C81.9917 120.18 82.7117 119.46 82.7117 118.58V101.25C82.7117 100.36 81.9917 99.65 81.1117 99.65C80.2317 99.65 79.5117 100.37 79.5117 101.25V118.58ZM66.5617 125.03C65.6717 125.03 64.9617 125.75 64.9617 126.63V135.29C64.9617 136.18 65.6817 136.89 66.5617 136.89C67.4517 136.89 68.1617 136.17 68.1617 135.29V128.42C71.2817 129.15 73.6217 131.95 73.6217 135.29C73.6217 139.18 70.4517 142.35 66.5617 142.35C65.6717 142.35 64.9617 143.07 64.9617 143.95C64.9617 144.84 65.6817 145.55 66.5617 145.55C72.2217 145.55 76.8317 140.94 76.8317 135.28C76.8317 129.63 72.2217 125.03 66.5617 125.03ZM100.862 126.63C100.862 125.74 100.142 125.03 99.2617 125.03H94.9317H90.6017C89.7117 125.03 89.0017 125.75 89.0017 126.63C89.0017 127.52 89.7217 128.23 90.6017 128.23H93.3317V143.95C93.3317 144.84 94.0517 145.55 94.9317 145.55C95.8217 145.55 96.5317 144.83 96.5317 143.95V128.23H99.2617C100.142 128.24 100.862 127.52 100.862 126.63ZM110.392 116.97H104.372L111.762 101.9C112.022 101.4 112.002 100.81 111.712 100.33C111.422 99.85 110.902 99.56 110.342 99.56H101.742C100.852 99.56 100.142 100.28 100.142 101.16C100.142 102.05 100.862 102.76 101.742 102.76H107.702L100.312 117.83C100.052 118.33 100.072 118.92 100.362 119.4C100.652 119.88 101.172 120.17 101.732 120.17H110.392C111.282 120.17 111.992 119.45 111.992 118.57C112.002 117.69 111.282 116.97 110.392 116.97ZM111.952 143.56C112.072 144.04 111.972 144.55 111.662 144.94C111.352 145.33 110.892 145.56 110.392 145.56H101.732C101.232 145.56 100.772 145.33 100.462 144.94C100.162 144.55 100.052 144.04 100.172 143.56L104.502 126.24C104.682 125.53 105.322 125.04 106.052 125.04C106.782 125.04 107.422 125.53 107.602 126.24L111.952 143.56ZM108.322 142.35L106.062 133.05L103.802 142.35H108.322ZM85.7017 119.41C85.9917 119.89 86.5117 120.18 87.0717 120.18H95.7317C96.6217 120.18 97.3317 119.46 97.3317 118.58C97.3317 117.69 96.6117 116.98 95.7317 116.98H89.7117L97.1017 101.91C97.3617 101.41 97.3417 100.82 97.0517 100.34C96.7617 99.86 96.2417 99.57 95.6817 99.57H87.0817C86.1917 99.57 85.4817 100.29 85.4817 101.17C85.4817 102.06 86.2017 102.77 87.0817 102.77H93.0417L85.6517 117.84C85.3917 118.33 85.4117 118.93 85.7017 119.41ZM89.6717 143.56C89.7917 144.04 89.6917 144.55 89.3817 144.94C89.0717 145.33 88.6117 145.56 88.1117 145.56H79.4517C78.9517 145.56 78.4917 145.33 78.1817 144.94C77.8817 144.55 77.7717 144.04 77.8917 143.56L82.2217 126.24C82.4017 125.53 83.0417 125.04 83.7717 125.04C84.5017 125.04 85.1417 125.53 85.3217 126.24L89.6717 143.56ZM86.0517 142.35L83.7917 133.05L81.5317 142.35H86.0517Z" fill="#BB3721"/>
<path d="M176.683 26.93V54C176.683 54.77 176.133 55.43 175.373 55.58C175.273 55.6 175.173 55.61 175.083 55.61C174.433 55.61 173.833 55.21 173.593 54.58L167.853 39.73C167.783 39.55 167.743 39.35 167.743 39.15V27.21C167.743 16.33 176.593 7.49 187.463 7.49C188.153 7.49 188.853 7.53 189.533 7.6C189.943 7.28 190.453 7.09 191.003 7.09C192.343 7.09 193.423 8.18 193.423 9.51C193.423 9.56 193.413 9.6 193.413 9.65C193.413 9.69 193.403 9.73 193.403 9.77C193.273 10.98 192.253 11.94 191.003 11.94C190.123 11.94 189.363 11.47 188.943 10.77C188.453 10.73 187.963 10.7 187.463 10.7C178.353 10.7 170.943 18.11 170.943 27.22V38.85L173.473 45.4V26.93C173.473 19.22 179.743 12.94 187.463 12.94C195.183 12.94 201.453 19.21 201.453 26.93V38.08C201.453 38.08 201.443 41.77 201.433 45.62L203.983 39.24V27.21C203.983 23.39 202.643 19.7 200.263 16.77C200.243 16.77 200.223 16.78 200.203 16.78C198.863 16.78 197.783 15.69 197.783 14.36C197.783 13.02 198.873 11.94 200.203 11.94C201.543 11.94 202.623 13.03 202.623 14.36C202.623 14.44 202.603 14.51 202.603 14.58C205.543 18.11 207.193 22.58 207.193 27.22V39.55C207.193 39.75 207.153 39.96 207.083 40.15L201.293 54.6C201.003 55.31 200.253 55.72 199.503 55.58C198.753 55.43 198.203 54.77 198.203 54.01C198.203 52.39 198.253 38.09 198.253 38.09V26.93C198.253 20.99 193.413 16.15 187.473 16.15C181.513 16.15 176.683 20.98 176.683 26.93ZM165.323 24.83C165.753 21.24 167.033 17.85 169.063 14.89C170.273 14.75 171.213 13.74 171.213 12.49C171.213 11.15 170.123 10.07 168.793 10.07C167.453 10.07 166.373 11.16 166.373 12.49C166.373 12.68 166.403 12.87 166.443 13.05C165.103 15 164.033 17.11 163.283 19.34L161.813 15.76C164.333 10.4 168.553 5.88 173.753 3C174.393 2.65 174.713 1.9 174.533 1.2C174.353 0.490001 173.713 0 172.983 0H162.973C162.573 0 162.183 0.15 161.883 0.43C160.313 1.88 158.873 3.45 157.583 5.14L156.073 1.06C155.763 0.229998 154.843 -0.199999 154.013 0.110001C153.183 0.420001 152.753 1.34 153.063 2.17L155.623 9.11C155.833 9.68 156.343 10.08 156.953 10.15C157.553 10.22 158.143 9.94 158.473 9.43C159.933 7.17 161.653 5.08 163.603 3.22H167.733C163.803 6.38 160.643 10.47 158.603 15.1C158.423 15.5 158.423 15.95 158.583 16.36L162.243 25.27C162.493 25.88 163.083 26.26 163.723 26.26C163.793 26.26 163.873 26.26 163.943 26.25C164.673 26.13 165.233 25.55 165.323 24.83ZM187.463 18.88C183.193 18.88 179.723 22.35 179.723 26.62V32.15C179.723 33.04 180.443 33.75 181.323 33.75C182.203 33.75 182.923 33.03 182.923 32.15V26.62C182.923 24.12 184.953 22.09 187.453 22.09C189.953 22.09 191.983 24.12 191.983 26.62V29.52C191.483 29.96 191.163 30.6 191.163 31.32C191.163 32.55 192.083 33.55 193.263 33.71C193.363 33.73 193.473 33.74 193.583 33.74H193.593C193.703 33.74 193.803 33.73 193.903 33.71C195.083 33.55 196.003 32.54 196.003 31.32C196.003 30.6 195.683 29.96 195.183 29.52V26.62C195.203 22.35 191.723 18.88 187.463 18.88ZM193.593 36.66C192.703 36.66 191.993 37.38 191.993 38.26V67.1C191.493 67.54 191.173 68.18 191.173 68.9C191.173 70.13 192.093 71.13 193.273 71.29C193.373 71.31 193.483 71.32 193.593 71.32C193.623 71.32 193.643 71.31 193.663 71.31C193.743 71.31 193.833 71.3 193.913 71.28C195.093 71.12 196.013 70.11 196.013 68.89C196.013 68.17 195.693 67.53 195.193 67.09V38.26C195.203 37.38 194.483 36.66 193.593 36.66ZM185.853 26.58V34.31C185.853 35.2 186.573 35.91 187.453 35.91C188.343 35.91 189.053 35.19 189.053 34.31V26.58C189.053 25.69 188.333 24.98 187.453 24.98C186.573 24.97 185.853 25.69 185.853 26.58ZM187.463 87.69C187.553 87.69 187.653 87.68 187.753 87.66C188.513 87.52 189.073 86.86 189.073 86.08V40.78C189.073 39.89 188.353 39.18 187.473 39.18C186.583 39.18 185.873 39.9 185.873 40.78V77.23L182.943 69.42V57.52C182.943 56.63 182.223 55.92 181.343 55.92C180.463 55.92 179.743 56.64 179.743 57.52V69.73C179.743 69.92 179.773 70.11 179.843 70.29L185.973 86.65C186.193 87.29 186.803 87.69 187.463 87.69ZM179.723 48.21C179.223 48.65 178.903 49.29 178.903 50.01C178.903 51.24 179.823 52.24 181.003 52.4C181.103 52.42 181.213 52.43 181.323 52.43C181.433 52.43 181.543 52.42 181.643 52.4C182.823 52.24 183.743 51.23 183.743 50.01C183.743 49.29 183.423 48.65 182.923 48.21V38.27C182.923 37.38 182.203 36.67 181.323 36.67C180.443 36.67 179.723 37.39 179.723 38.27V48.21ZM205.793 2.16C205.713 1.48 205.363 0.829998 204.753 0.419998C203.643 -0.330002 202.133 -0.030002 201.393 1.08C200.643 2.19 200.943 3.7 202.043 4.44C202.623 4.83 203.313 4.93 203.953 4.78C207.873 7.6 211.063 11.4 213.113 15.78L211.683 19.47C208.313 9.21 198.703 2 187.463 2C182.723 2 178.093 3.31 174.083 5.79C173.333 6.26 173.093 7.24 173.563 8C174.033 8.75 175.013 8.99 175.773 8.52C179.283 6.36 183.323 5.21 187.463 5.21C198.953 5.21 208.483 13.81 209.643 25.22C209.713 25.96 210.293 26.55 211.023 26.65C211.093 26.66 211.163 26.66 211.243 26.66C211.893 26.66 212.493 26.26 212.733 25.64L216.353 16.31C216.503 15.91 216.493 15.47 216.323 15.08C214.043 9.92 210.373 5.44 205.793 2.16ZM220.353 0H211.883C211.223 0 210.623 0.409999 210.383 1.03C210.143 1.65 210.313 2.35 210.803 2.8C212.393 4.23 213.713 5.67 214.943 7.28C214.763 7.94 214.863 8.68 215.283 9.28C216.043 10.38 217.563 10.65 218.653 9.89C218.763 9.82 218.863 9.73 218.953 9.64C219.793 8.83 219.953 7.51 219.263 6.52C218.863 5.95 218.263 5.61 217.623 5.51C217.023 4.71 216.403 3.95 215.743 3.21H220.343C221.233 3.21 221.943 2.49 221.943 1.61C221.953 0.720001 221.243 0 220.353 0ZM169.443 108.97H165.543C164.653 108.97 163.943 109.69 163.943 110.57V118.57C163.943 119.46 164.663 120.17 165.543 120.17C166.433 120.17 167.143 119.45 167.143 118.57V112.17H169.433C172.913 112.17 175.743 109.34 175.743 105.86C175.743 102.38 172.913 99.55 169.433 99.55H165.533C164.643 99.55 163.933 100.27 163.933 101.15C163.933 102.04 164.653 102.75 165.533 102.75H169.433C171.143 102.75 172.533 104.14 172.533 105.85C172.543 107.58 171.153 108.97 169.443 108.97ZM178.493 118.58C178.493 119.47 179.213 120.18 180.093 120.18C180.973 120.18 181.693 119.46 181.693 118.58V101.25C181.693 100.36 180.973 99.65 180.093 99.65C179.213 99.65 178.493 100.37 178.493 101.25V118.58ZM165.543 125.03C164.653 125.03 163.943 125.75 163.943 126.63V135.29C163.943 136.18 164.663 136.89 165.543 136.89C166.433 136.89 167.143 136.17 167.143 135.29V128.42C170.263 129.15 172.603 131.95 172.603 135.29C172.603 139.18 169.433 142.35 165.543 142.35C164.653 142.35 163.943 143.07 163.943 143.95C163.943 144.84 164.663 145.55 165.543 145.55C171.203 145.55 175.813 140.94 175.813 135.28C175.813 129.63 171.203 125.03 165.543 125.03ZM199.843 126.63C199.843 125.74 199.123 125.03 198.243 125.03H193.913H189.583C188.693 125.03 187.983 125.75 187.983 126.63C187.983 127.52 188.703 128.23 189.583 128.23H192.313V143.95C192.313 144.84 193.033 145.55 193.913 145.55C194.803 145.55 195.513 144.83 195.513 143.95V128.23H198.243C199.123 128.24 199.843 127.52 199.843 126.63ZM209.373 116.97H203.353L210.743 101.9C211.003 101.4 210.983 100.81 210.693 100.33C210.403 99.85 209.883 99.56 209.323 99.56H200.723C199.833 99.56 199.123 100.28 199.123 101.16C199.123 102.05 199.843 102.76 200.723 102.76H206.683L199.293 117.83C199.033 118.33 199.053 118.92 199.343 119.4C199.633 119.88 200.153 120.17 200.713 120.17H209.373C210.263 120.17 210.973 119.45 210.973 118.57C210.983 117.69 210.263 116.97 209.373 116.97ZM210.933 143.56C211.053 144.04 210.953 144.55 210.643 144.94C210.333 145.33 209.873 145.56 209.373 145.56H200.713C200.213 145.56 199.753 145.33 199.443 144.94C199.143 144.55 199.033 144.04 199.153 143.56L203.483 126.24C203.663 125.53 204.303 125.04 205.033 125.04C205.763 125.04 206.403 125.53 206.583 126.24L210.933 143.56ZM207.303 142.35L205.043 133.05L202.783 142.35H207.303ZM184.683 119.41C184.973 119.89 185.493 120.18 186.053 120.18H194.713C195.603 120.18 196.313 119.46 196.313 118.58C196.313 117.69 195.593 116.98 194.713 116.98H188.693L196.083 101.91C196.343 101.41 196.323 100.82 196.033 100.34C195.743 99.86 195.223 99.57 194.663 99.57H186.063C185.173 99.57 184.463 100.29 184.463 101.17C184.463 102.06 185.183 102.77 186.063 102.77H192.023L184.633 117.84C184.373 118.33 184.393 118.93 184.683 119.41ZM188.653 143.56C188.773 144.04 188.673 144.55 188.363 144.94C188.053 145.33 187.593 145.56 187.093 145.56H178.433C177.933 145.56 177.473 145.33 177.163 144.94C176.863 144.55 176.753 144.04 176.873 143.56L181.203 126.24C181.383 125.53 182.023 125.04 182.753 125.04C183.483 125.04 184.123 125.53 184.303 126.24L188.653 143.56ZM185.033 142.35L182.773 133.05L180.513 142.35H185.033Z" fill="#BB3721"/>
<path d="M275.664 26.93V54C275.664 54.77 275.114 55.43 274.354 55.58C274.254 55.6 274.154 55.61 274.064 55.61C273.414 55.61 272.814 55.21 272.574 54.58L266.834 39.73C266.764 39.55 266.724 39.35 266.724 39.15V27.21C266.724 16.33 275.574 7.49 286.444 7.49C287.134 7.49 287.834 7.53 288.514 7.6C288.924 7.28 289.434 7.09 289.984 7.09C291.324 7.09 292.404 8.18 292.404 9.51C292.404 9.56 292.394 9.6 292.394 9.65C292.394 9.69 292.384 9.73 292.384 9.77C292.254 10.98 291.234 11.94 289.984 11.94C289.104 11.94 288.344 11.47 287.924 10.77C287.434 10.73 286.944 10.7 286.444 10.7C277.334 10.7 269.924 18.11 269.924 27.22V38.85L272.454 45.4V26.93C272.454 19.22 278.724 12.94 286.444 12.94C294.164 12.94 300.434 19.21 300.434 26.93V38.08C300.434 38.08 300.424 41.77 300.414 45.62L302.964 39.24V27.21C302.964 23.39 301.624 19.7 299.244 16.77C299.224 16.77 299.204 16.78 299.184 16.78C297.844 16.78 296.764 15.69 296.764 14.36C296.764 13.02 297.854 11.94 299.184 11.94C300.524 11.94 301.604 13.03 301.604 14.36C301.604 14.44 301.584 14.51 301.584 14.58C304.524 18.11 306.174 22.58 306.174 27.22V39.55C306.174 39.75 306.134 39.96 306.064 40.15L300.274 54.6C299.984 55.31 299.234 55.72 298.484 55.58C297.734 55.43 297.184 54.77 297.184 54.01C297.184 52.39 297.234 38.09 297.234 38.09V26.93C297.234 20.99 292.394 16.15 286.454 16.15C280.494 16.15 275.664 20.98 275.664 26.93ZM264.304 24.83C264.734 21.24 266.014 17.85 268.044 14.89C269.254 14.75 270.194 13.74 270.194 12.49C270.194 11.15 269.104 10.07 267.774 10.07C266.434 10.07 265.354 11.16 265.354 12.49C265.354 12.68 265.384 12.87 265.424 13.05C264.084 15 263.014 17.11 262.264 19.34L260.794 15.76C263.314 10.4 267.534 5.88 272.734 3C273.374 2.65 273.694 1.9 273.514 1.2C273.334 0.490001 272.694 0 271.964 0H261.954C261.554 0 261.164 0.15 260.864 0.43C259.294 1.88 257.854 3.45 256.564 5.14L255.054 1.06C254.744 0.229998 253.824 -0.199999 252.994 0.110001C252.164 0.420001 251.734 1.34 252.044 2.17L254.604 9.11C254.814 9.68 255.324 10.08 255.934 10.15C256.534 10.22 257.124 9.94 257.454 9.43C258.914 7.17 260.634 5.08 262.584 3.22H266.714C262.784 6.38 259.624 10.47 257.584 15.1C257.404 15.5 257.404 15.95 257.564 16.36L261.224 25.27C261.474 25.88 262.064 26.26 262.704 26.26C262.774 26.26 262.854 26.26 262.924 26.25C263.654 26.13 264.214 25.55 264.304 24.83ZM286.444 18.88C282.174 18.88 278.704 22.35 278.704 26.62V32.15C278.704 33.04 279.424 33.75 280.304 33.75C281.184 33.75 281.904 33.03 281.904 32.15V26.62C281.904 24.12 283.934 22.09 286.434 22.09C288.934 22.09 290.964 24.12 290.964 26.62V29.52C290.464 29.96 290.144 30.6 290.144 31.32C290.144 32.55 291.064 33.55 292.244 33.71C292.344 33.73 292.454 33.74 292.564 33.74H292.574C292.684 33.74 292.784 33.73 292.884 33.71C294.064 33.55 294.984 32.54 294.984 31.32C294.984 30.6 294.664 29.96 294.164 29.52V26.62C294.184 22.35 290.704 18.88 286.444 18.88ZM292.574 36.66C291.684 36.66 290.974 37.38 290.974 38.26V67.1C290.474 67.54 290.154 68.18 290.154 68.9C290.154 70.13 291.074 71.13 292.254 71.29C292.354 71.31 292.464 71.32 292.574 71.32C292.604 71.32 292.624 71.31 292.644 71.31C292.724 71.31 292.814 71.3 292.894 71.28C294.074 71.12 294.994 70.11 294.994 68.89C294.994 68.17 294.674 67.53 294.174 67.09V38.26C294.184 37.38 293.464 36.66 292.574 36.66ZM284.834 26.58V34.31C284.834 35.2 285.554 35.91 286.434 35.91C287.324 35.91 288.034 35.19 288.034 34.31V26.58C288.034 25.69 287.314 24.98 286.434 24.98C285.554 24.97 284.834 25.69 284.834 26.58ZM286.444 87.69C286.534 87.69 286.634 87.68 286.734 87.66C287.494 87.52 288.054 86.86 288.054 86.08V40.78C288.054 39.89 287.334 39.18 286.454 39.18C285.564 39.18 284.854 39.9 284.854 40.78V77.23L281.924 69.42V57.52C281.924 56.63 281.204 55.92 280.324 55.92C279.444 55.92 278.724 56.64 278.724 57.52V69.73C278.724 69.92 278.754 70.11 278.824 70.29L284.954 86.65C285.174 87.29 285.784 87.69 286.444 87.69ZM278.704 48.21C278.204 48.65 277.884 49.29 277.884 50.01C277.884 51.24 278.804 52.24 279.984 52.4C280.084 52.42 280.194 52.43 280.304 52.43C280.414 52.43 280.524 52.42 280.624 52.4C281.804 52.24 282.724 51.23 282.724 50.01C282.724 49.29 282.404 48.65 281.904 48.21V38.27C281.904 37.38 281.184 36.67 280.304 36.67C279.424 36.67 278.704 37.39 278.704 38.27V48.21ZM304.774 2.16C304.694 1.48 304.344 0.829998 303.734 0.419998C302.624 -0.330002 301.114 -0.030002 300.374 1.08C299.624 2.19 299.924 3.7 301.024 4.44C301.604 4.83 302.294 4.93 302.934 4.78C306.854 7.6 310.044 11.4 312.094 15.78L310.664 19.47C307.294 9.21 297.684 2 286.444 2C281.704 2 277.074 3.31 273.064 5.79C272.314 6.26 272.074 7.24 272.544 8C273.014 8.75 273.994 8.99 274.754 8.52C278.264 6.36 282.304 5.21 286.444 5.21C297.934 5.21 307.464 13.81 308.624 25.22C308.694 25.96 309.274 26.55 310.004 26.65C310.074 26.66 310.144 26.66 310.224 26.66C310.874 26.66 311.474 26.26 311.714 25.64L315.334 16.31C315.484 15.91 315.474 15.47 315.304 15.08C313.024 9.92 309.354 5.44 304.774 2.16ZM319.334 0H310.864C310.204 0 309.604 0.409999 309.364 1.03C309.124 1.65 309.294 2.35 309.784 2.8C311.374 4.23 312.694 5.67 313.924 7.28C313.744 7.94 313.844 8.68 314.264 9.28C315.024 10.38 316.544 10.65 317.634 9.89C317.744 9.82 317.844 9.73 317.934 9.64C318.774 8.83 318.934 7.51 318.244 6.52C317.844 5.95 317.244 5.61 316.604 5.51C316.004 4.71 315.384 3.95 314.724 3.21H319.324C320.214 3.21 320.924 2.49 320.924 1.61C320.934 0.720001 320.224 0 319.334 0ZM268.424 108.97H264.524C263.634 108.97 262.924 109.69 262.924 110.57V118.57C262.924 119.46 263.644 120.17 264.524 120.17C265.414 120.17 266.124 119.45 266.124 118.57V112.17H268.414C271.894 112.17 274.724 109.34 274.724 105.86C274.724 102.38 271.894 99.55 268.414 99.55H264.514C263.624 99.55 262.914 100.27 262.914 101.15C262.914 102.04 263.634 102.75 264.514 102.75H268.414C270.124 102.75 271.514 104.14 271.514 105.85C271.524 107.58 270.134 108.97 268.424 108.97ZM277.474 118.58C277.474 119.47 278.194 120.18 279.074 120.18C279.954 120.18 280.674 119.46 280.674 118.58V101.25C280.674 100.36 279.954 99.65 279.074 99.65C278.194 99.65 277.474 100.37 277.474 101.25V118.58ZM264.524 125.03C263.634 125.03 262.924 125.75 262.924 126.63V135.29C262.924 136.18 263.644 136.89 264.524 136.89C265.414 136.89 266.124 136.17 266.124 135.29V128.42C269.244 129.15 271.584 131.95 271.584 135.29C271.584 139.18 268.414 142.35 264.524 142.35C263.634 142.35 262.924 143.07 262.924 143.95C262.924 144.84 263.644 145.55 264.524 145.55C270.184 145.55 274.794 140.94 274.794 135.28C274.794 129.63 270.184 125.03 264.524 125.03ZM298.824 126.63C298.824 125.74 298.104 125.03 297.224 125.03H292.894H288.564C287.674 125.03 286.964 125.75 286.964 126.63C286.964 127.52 287.684 128.23 288.564 128.23H291.294V143.95C291.294 144.84 292.014 145.55 292.894 145.55C293.784 145.55 294.494 144.83 294.494 143.95V128.23H297.224C298.104 128.24 298.824 127.52 298.824 126.63ZM308.354 116.97H302.334L309.724 101.9C309.984 101.4 309.964 100.81 309.674 100.33C309.384 99.85 308.864 99.56 308.304 99.56H299.704C298.814 99.56 298.104 100.28 298.104 101.16C298.104 102.05 298.824 102.76 299.704 102.76H305.664L298.274 117.83C298.014 118.33 298.034 118.92 298.324 119.4C298.614 119.88 299.134 120.17 299.694 120.17H308.354C309.244 120.17 309.954 119.45 309.954 118.57C309.964 117.69 309.244 116.97 308.354 116.97ZM309.914 143.56C310.034 144.04 309.934 144.55 309.624 144.94C309.314 145.33 308.854 145.56 308.354 145.56H299.694C299.194 145.56 298.734 145.33 298.424 144.94C298.124 144.55 298.014 144.04 298.134 143.56L302.464 126.24C302.644 125.53 303.284 125.04 304.014 125.04C304.744 125.04 305.384 125.53 305.564 126.24L309.914 143.56ZM306.284 142.35L304.024 133.05L301.764 142.35H306.284ZM283.664 119.41C283.954 119.89 284.474 120.18 285.034 120.18H293.694C294.584 120.18 295.294 119.46 295.294 118.58C295.294 117.69 294.574 116.98 293.694 116.98H287.674L295.064 101.91C295.324 101.41 295.304 100.82 295.014 100.34C294.724 99.86 294.204 99.57 293.644 99.57H285.044C284.154 99.57 283.444 100.29 283.444 101.17C283.444 102.06 284.164 102.77 285.044 102.77H291.004L283.614 117.84C283.354 118.33 283.374 118.93 283.664 119.41ZM287.634 143.56C287.754 144.04 287.654 144.55 287.344 144.94C287.034 145.33 286.574 145.56 286.074 145.56H277.414C276.914 145.56 276.454 145.33 276.144 144.94C275.844 144.55 275.734 144.04 275.854 143.56L280.184 126.24C280.364 125.53 281.004 125.04 281.734 125.04C282.464 125.04 283.104 125.53 283.284 126.24L287.634 143.56ZM284.014 142.35L281.754 133.05L279.494 142.35H284.014Z" fill="#BB3721"/>
<path d="M374.645 26.93V54C374.645 54.77 374.095 55.43 373.335 55.58C373.235 55.6 373.135 55.61 373.045 55.61C372.395 55.61 371.795 55.21 371.555 54.58L365.815 39.73C365.745 39.55 365.705 39.35 365.705 39.15V27.21C365.705 16.33 374.555 7.49 385.425 7.49C386.115 7.49 386.815 7.53 387.495 7.6C387.905 7.28 388.415 7.09 388.965 7.09C390.305 7.09 391.385 8.18 391.385 9.51C391.385 9.56 391.375 9.6 391.375 9.65C391.375 9.69 391.365 9.73 391.365 9.77C391.235 10.98 390.215 11.94 388.965 11.94C388.085 11.94 387.325 11.47 386.905 10.77C386.415 10.73 385.925 10.7 385.425 10.7C376.315 10.7 368.905 18.11 368.905 27.22V38.85L371.435 45.4V26.93C371.435 19.22 377.705 12.94 385.425 12.94C393.145 12.94 399.415 19.21 399.415 26.93V38.08C399.415 38.08 399.405 41.77 399.395 45.62L401.945 39.24V27.21C401.945 23.39 400.605 19.7 398.225 16.77C398.205 16.77 398.185 16.78 398.165 16.78C396.825 16.78 395.745 15.69 395.745 14.36C395.745 13.02 396.835 11.94 398.165 11.94C399.505 11.94 400.585 13.03 400.585 14.36C400.585 14.44 400.565 14.51 400.565 14.58C403.505 18.11 405.155 22.58 405.155 27.22V39.55C405.155 39.75 405.115 39.96 405.045 40.15L399.255 54.6C398.965 55.31 398.215 55.72 397.465 55.58C396.715 55.43 396.165 54.77 396.165 54.01C396.165 52.39 396.215 38.09 396.215 38.09V26.93C396.215 20.99 391.375 16.15 385.435 16.15C379.475 16.15 374.645 20.98 374.645 26.93ZM363.285 24.83C363.715 21.24 364.995 17.85 367.025 14.89C368.235 14.75 369.175 13.74 369.175 12.49C369.175 11.15 368.085 10.07 366.755 10.07C365.415 10.07 364.335 11.16 364.335 12.49C364.335 12.68 364.365 12.87 364.405 13.05C363.065 15 361.995 17.11 361.245 19.34L359.775 15.76C362.295 10.4 366.515 5.88 371.715 3C372.355 2.65 372.675 1.9 372.495 1.2C372.315 0.490001 371.675 0 370.945 0H360.935C360.535 0 360.145 0.15 359.845 0.43C358.275 1.88 356.835 3.45 355.545 5.14L354.035 1.06C353.725 0.229998 352.805 -0.199999 351.975 0.110001C351.145 0.420001 350.715 1.34 351.025 2.17L353.585 9.11C353.795 9.68 354.305 10.08 354.915 10.15C355.515 10.22 356.105 9.94 356.435 9.43C357.895 7.17 359.615 5.08 361.565 3.22H365.695C361.765 6.38 358.605 10.47 356.565 15.1C356.385 15.5 356.385 15.95 356.545 16.36L360.205 25.27C360.455 25.88 361.045 26.26 361.685 26.26C361.755 26.26 361.835 26.26 361.905 26.25C362.635 26.13 363.195 25.55 363.285 24.83ZM385.425 18.88C381.155 18.88 377.685 22.35 377.685 26.62V32.15C377.685 33.04 378.405 33.75 379.285 33.75C380.165 33.75 380.885 33.03 380.885 32.15V26.62C380.885 24.12 382.915 22.09 385.415 22.09C387.915 22.09 389.945 24.12 389.945 26.62V29.52C389.445 29.96 389.125 30.6 389.125 31.32C389.125 32.55 390.045 33.55 391.225 33.71C391.325 33.73 391.435 33.74 391.545 33.74H391.555C391.665 33.74 391.765 33.73 391.865 33.71C393.045 33.55 393.965 32.54 393.965 31.32C393.965 30.6 393.645 29.96 393.145 29.52V26.62C393.165 22.35 389.685 18.88 385.425 18.88ZM391.555 36.66C390.665 36.66 389.955 37.38 389.955 38.26V67.1C389.455 67.54 389.135 68.18 389.135 68.9C389.135 70.13 390.055 71.13 391.235 71.29C391.335 71.31 391.445 71.32 391.555 71.32C391.585 71.32 391.605 71.31 391.625 71.31C391.705 71.31 391.795 71.3 391.875 71.28C393.055 71.12 393.975 70.11 393.975 68.89C393.975 68.17 393.655 67.53 393.155 67.09V38.26C393.165 37.38 392.445 36.66 391.555 36.66ZM383.815 26.58V34.31C383.815 35.2 384.535 35.91 385.415 35.91C386.305 35.91 387.015 35.19 387.015 34.31V26.58C387.015 25.69 386.295 24.98 385.415 24.98C384.535 24.97 383.815 25.69 383.815 26.58ZM385.425 87.69C385.515 87.69 385.615 87.68 385.715 87.66C386.475 87.52 387.035 86.86 387.035 86.08V40.78C387.035 39.89 386.315 39.18 385.435 39.18C384.545 39.18 383.835 39.9 383.835 40.78V77.23L380.905 69.42V57.52C380.905 56.63 380.185 55.92 379.305 55.92C378.425 55.92 377.705 56.64 377.705 57.52V69.73C377.705 69.92 377.735 70.11 377.805 70.29L383.935 86.65C384.155 87.29 384.765 87.69 385.425 87.69ZM377.685 48.21C377.185 48.65 376.865 49.29 376.865 50.01C376.865 51.24 377.785 52.24 378.965 52.4C379.065 52.42 379.175 52.43 379.285 52.43C379.395 52.43 379.505 52.42 379.605 52.4C380.785 52.24 381.705 51.23 381.705 50.01C381.705 49.29 381.385 48.65 380.885 48.21V38.27C380.885 37.38 380.165 36.67 379.285 36.67C378.405 36.67 377.685 37.39 377.685 38.27V48.21ZM403.755 2.16C403.675 1.48 403.325 0.829998 402.715 0.419998C401.605 -0.330002 400.095 -0.030002 399.355 1.08C398.605 2.19 398.905 3.7 400.005 4.44C400.585 4.83 401.275 4.93 401.915 4.78C405.835 7.6 409.025 11.4 411.075 15.78L409.645 19.47C406.275 9.21 396.665 2 385.425 2C380.685 2 376.055 3.31 372.045 5.79C371.295 6.26 371.055 7.24 371.525 8C371.995 8.75 372.975 8.99 373.735 8.52C377.245 6.36 381.285 5.21 385.425 5.21C396.915 5.21 406.445 13.81 407.605 25.22C407.675 25.96 408.255 26.55 408.985 26.65C409.055 26.66 409.125 26.66 409.205 26.66C409.855 26.66 410.455 26.26 410.695 25.64L414.315 16.31C414.465 15.91 414.455 15.47 414.285 15.08C412.005 9.92 408.335 5.44 403.755 2.16ZM418.315 0H409.845C409.185 0 408.585 0.409999 408.345 1.03C408.105 1.65 408.275 2.35 408.765 2.8C410.355 4.23 411.675 5.67 412.905 7.28C412.725 7.94 412.825 8.68 413.245 9.28C414.005 10.38 415.525 10.65 416.615 9.89C416.725 9.82 416.825 9.73 416.915 9.64C417.755 8.83 417.915 7.51 417.225 6.52C416.825 5.95 416.225 5.61 415.585 5.51C414.985 4.71 414.365 3.95 413.705 3.21H418.305C419.195 3.21 419.905 2.49 419.905 1.61C419.915 0.720001 419.205 0 418.315 0ZM367.405 108.97H363.505C362.615 108.97 361.905 109.69 361.905 110.57V118.57C361.905 119.46 362.625 120.17 363.505 120.17C364.395 120.17 365.105 119.45 365.105 118.57V112.17H367.395C370.875 112.17 373.705 109.34 373.705 105.86C373.705 102.38 370.875 99.55 367.395 99.55H363.495C362.605 99.55 361.895 100.27 361.895 101.15C361.895 102.04 362.615 102.75 363.495 102.75H367.395C369.105 102.75 370.495 104.14 370.495 105.85C370.505 107.58 369.115 108.97 367.405 108.97ZM376.455 118.58C376.455 119.47 377.175 120.18 378.055 120.18C378.935 120.18 379.655 119.46 379.655 118.58V101.25C379.655 100.36 378.935 99.65 378.055 99.65C377.175 99.65 376.455 100.37 376.455 101.25V118.58ZM363.505 125.03C362.615 125.03 361.905 125.75 361.905 126.63V135.29C361.905 136.18 362.625 136.89 363.505 136.89C364.395 136.89 365.105 136.17 365.105 135.29V128.42C368.225 129.15 370.565 131.95 370.565 135.29C370.565 139.18 367.395 142.35 363.505 142.35C362.615 142.35 361.905 143.07 361.905 143.95C361.905 144.84 362.625 145.55 363.505 145.55C369.165 145.55 373.775 140.94 373.775 135.28C373.775 129.63 369.165 125.03 363.505 125.03ZM397.805 126.63C397.805 125.74 397.085 125.03 396.205 125.03H391.875H387.545C386.655 125.03 385.945 125.75 385.945 126.63C385.945 127.52 386.665 128.23 387.545 128.23H390.275V143.95C390.275 144.84 390.995 145.55 391.875 145.55C392.765 145.55 393.475 144.83 393.475 143.95V128.23H396.205C397.085 128.24 397.805 127.52 397.805 126.63ZM407.335 116.97H401.315L408.705 101.9C408.965 101.4 408.945 100.81 408.655 100.33C408.365 99.85 407.845 99.56 407.285 99.56H398.685C397.795 99.56 397.085 100.28 397.085 101.16C397.085 102.05 397.805 102.76 398.685 102.76H404.645L397.255 117.83C396.995 118.33 397.015 118.92 397.305 119.4C397.595 119.88 398.115 120.17 398.675 120.17H407.335C408.225 120.17 408.935 119.45 408.935 118.57C408.945 117.69 408.225 116.97 407.335 116.97ZM408.895 143.56C409.015 144.04 408.915 144.55 408.605 144.94C408.295 145.33 407.835 145.56 407.335 145.56H398.675C398.175 145.56 397.715 145.33 397.405 144.94C397.105 144.55 396.995 144.04 397.115 143.56L401.445 126.24C401.625 125.53 402.265 125.04 402.995 125.04C403.725 125.04 404.365 125.53 404.545 126.24L408.895 143.56ZM405.265 142.35L403.005 133.05L400.745 142.35H405.265ZM382.645 119.41C382.935 119.89 383.455 120.18 384.015 120.18H392.675C393.565 120.18 394.275 119.46 394.275 118.58C394.275 117.69 393.555 116.98 392.675 116.98H386.655L394.045 101.91C394.305 101.41 394.285 100.82 393.995 100.34C393.705 99.86 393.185 99.57 392.625 99.57H384.025C383.135 99.57 382.425 100.29 382.425 101.17C382.425 102.06 383.145 102.77 384.025 102.77H389.985L382.595 117.84C382.335 118.33 382.355 118.93 382.645 119.41ZM386.615 143.56C386.735 144.04 386.635 144.55 386.325 144.94C386.015 145.33 385.555 145.56 385.055 145.56H376.395C375.895 145.56 375.435 145.33 375.125 144.94C374.825 144.55 374.715 144.04 374.835 143.56L379.165 126.24C379.345 125.53 379.985 125.04 380.715 125.04C381.445 125.04 382.085 125.53 382.265 126.24L386.615 143.56ZM382.995 142.35L380.735 133.05L378.475 142.35H382.995Z" fill="#BB3721"/>
</svg>
